HIERARCHY
ROOT Hip
{
  OFFSET 0.0 0.0 0.0
  CHANNELS 6 Xposition Yposition Zposition Xrotation Yrotation Zrotation
  JOINT LowerSpine
  {
    OFFSET 0.0 0.061367 -0.03653
    CHANNELS 3 Xrotation Yrotation Zrotation
    JOINT MiddleSpine
    {
      OFFSET 0.0 0.056002 0.002633
      CHANNELS 3 Xrotation Yrotation Zrotation
      JOINT Chest
      {
        OFFSET 0.0 0.069296 -0.013882
        CHANNELS 3 Xrotation Yrotation Zrotation
        JOINT Neck
        {
          OFFSET 0.0 0.156156 -0.002923
          CHANNELS 3 Xrotation Yrotation Zrotation
          JOINT Head
          {
            OFFSET 0.0 0.088183 0.023986
            CHANNELS 3 Xrotation Yrotation Zrotation
            End Site
            {
              OFFSET 1e-06 0.123215 0.003678
            }
          }
        }
        JOINT LClavicle
        {
          OFFSET 0.014189 0.150698 0.046467
          CHANNELS 3 Xrotation Yrotation Zrotation
          JOINT LShoulder
          {
            OFFSET 0.082893 0.021616 -0.034976
            CHANNELS 3 Xrotation Yrotation Zrotation
            JOINT LForearm
            {
              OFFSET 0.195645 -0.000695 -0.001695
              CHANNELS 3 Xrotation Yrotation Zrotation
              JOINT LHand
              {
                OFFSET 0.163209 0.000474 -0.000977
                CHANNELS 3 Xrotation Yrotation Zrotation
                End Site
                {
                  OFFSET 0.0 0.006864 0.0
                }
              }
            }
          }
        }
        JOINT RClavicle
        {
          OFFSET -0.014189 0.150698 0.046467
          CHANNELS 3 Xrotation Yrotation Zrotation
          JOINT RShoulder
          {
            OFFSET -0.082908 0.021619 -0.034982
            CHANNELS 3 Xrotation Yrotation Zrotation
            JOINT RForearm
            {
              OFFSET -0.195645 -0.000695 -0.001695
              CHANNELS 3 Xrotation Yrotation Zrotation
              JOINT RHand
              {
                OFFSET -0.163209 0.000474 -0.000977
                CHANNELS 3 Xrotation Yrotation Zrotation
                End Site
                {
                  OFFSET 0.0 0.006864 0.0
                }
              }
            }
          }
        }
      }
    }
  }
  JOINT RThigh
  {
    OFFSET -0.072558 0.02774 -0.005953
    CHANNELS 3 Xrotation Yrotation Zrotation
    JOINT RShin
    {
      OFFSET -0.005253 -0.285537 0.0
      CHANNELS 3 Xrotation Yrotation Zrotation
      JOINT RFoot
      {
        OFFSET 0.0 -0.28038 0.0
        CHANNELS 3 Xrotation Yrotation Zrotation
        JOINT RToe
        {
          OFFSET 0.0 -0.030816 0.064441
          CHANNELS 3 Xrotation Yrotation Zrotation
          End Site
          {
            OFFSET 0.0 0.0 0.043231
          }
        }
      }
    }
  }
  JOINT LThigh
  {
    OFFSET 0.072557 0.027741 -0.005953
    CHANNELS 3 Xrotation Yrotation Zrotation
    JOINT LShin
    {
      OFFSET 0.005253 -0.285539 0.0
      CHANNELS 3 Xrotation Yrotation Zrotation
      JOINT LFoot
      {
        OFFSET 0.0 -0.28038 0.0
        CHANNELS 3 Xrotation Yrotation Zrotation
        JOINT LToe
        {
          OFFSET 0.0 -0.030816 0.064441
          CHANNELS 3 Xrotation Yrotation Zrotation
          End Site
          {
            OFFSET 0.0 0.0 0.043231
          }
        }
      }
    }
  }
}
MOTION
Frames: 18
Frame Time: 0.03333333333333333
0.060767 0.569837 -0.022598 13.79454 10.196718 -2.618672 0.075512 -0.619892 -0.286392 1.007881 3.433041 0.948626 3.769951 14.145113 3.030963 -0.151139 0.253874 -0.119423 0.03242 -0.068623 -0.042995 0.272143 -0.180013 -14.410589 18.204311 -32.199669 -56.745525 10.358538 -24.274883 -2.138642 0.093403 0.155227 -0.115577 0.372871 -1.164231 8.893844 -24.275051 28.599764 49.925468 -23.120417 40.123848 -3.028235 0.075885 -0.229196 0.000524 -14.962504 2.717907 -2.486669 6.404145 -0.063358 -0.061787 -3.969606 0.275541 -0.150383 0.096043 0.404807 0.083008 -8.58387 4.763182 0.65292 -0.928757 4.532893 -0.408536 -2.888472 0.391307 0.508687 0.083175 -0.118561 -0.00092 
0.060881 0.569983 -0.021586 14.062667 10.306797 -2.738813 0.084027 -0.628069 -0.301838 0.977723 3.435192 0.969198 3.613324 14.125566 3.062028 -0.141816 0.256011 -0.114257 0.033771 -0.070529 -0.044312 0.279246 -0.184171 -14.412944 18.203382 -32.130657 -56.858784 10.38524 -24.127609 -2.125151 0.095107 0.157653 -0.119566 0.380685 -1.202119 8.90074 -24.455524 28.454231 50.012924 -23.176916 40.040062 -3.129135 0.075377 -0.232596 -9.5e-05 -15.275756 2.593787 -2.481816 6.510048 -0.190656 -0.022457 -3.926198 0.266048 -0.162695 0.091112 0.410593 0.084455 -8.950263 4.65825 0.570799 -0.838723 4.495603 -0.423582 -2.881855 0.381716 0.50118 0.085543 -0.121929 -0.002208 
0.060924 0.57008 -0.020563 14.260027 10.416151 -2.838563 0.091561 -0.634848 -0.316427 0.950135 3.433744 0.988929 3.462411 14.074075 3.116379 -0.132903 0.257747 -0.1104 0.034951 -0.072129 -0.045458 0.284484 -0.185052 -14.416045 18.190901 -32.03302 -56.98542 10.397039 -23.984135 -2.109876 0.09671 0.159822 -0.123227 0.386849 -1.233586 8.908527 -24.575056 28.239473 50.106274 -23.230793 40.092213 -3.231952 0.07487 -0.236085 -0.000692 -15.505913 2.454895 -2.476966 6.591603 -0.320227 0.021803 -3.8852 0.260359 -0.173359 0.086351 0.415845 0.085794 -9.245938 4.540705 0.494259 -0.775841 4.449683 -0.429645 -2.875568 0.377089 0.495302 0.087537 -0.124944 -0.003501 
0.06094 0.570114 -0.019534 14.364119 10.518641 -2.915521 0.097463 -0.639613 -0.329422 0.924959 3.427357 1.0068 3.322906 13.985248 3.190895 -0.126662 0.259372 -0.107974 0.035984 -0.07358 -0.046459 0.285507 -0.186239 -14.421386 18.172653 -31.904289 -57.119064 10.393565 -23.841547 -2.09748 0.098224 0.161718 -0.126517 0.390635 -1.256853 8.915045 -24.624348 27.952921 50.193989 -23.28182 40.321026 -3.3329 0.07414 -0.239401 -0.001275 -15.625282 2.30271 -2.470455 6.630759 -0.450725 0.070006 -3.846154 0.260307 -0.1811 0.081748 0.420548 0.087102 -9.444684 4.400036 0.426619 -0.740879 4.38458 -0.42326 -2.871026 0.378717 0.491765 0.089018 -0.127618 -0.004765 
0.06093 0.570103 -0.018495 14.368344 10.612556 -2.965308 0.099664 -0.642215 -0.340732 0.903661 3.416449 1.022081 3.20139 13.860803 3.279361 -0.125987 0.260355 -0.10695 0.036859 -0.07446 -0.047298 0.283453 -0.187973 -14.431762 18.144625 -31.748014 -57.249409 10.375958 -23.697176 -2.087897 0.099763 0.163562 -0.129588 0.392133 -1.2714 8.920581 -24.597414 27.610044 50.266506 -23.326616 40.750916 -3.426143 0.073809 -0.242701 -0.00179 -15.616655 2.142386 -2.462108 6.621093 -0.576362 0.118977 -3.815348 0.263813 -0.186678 0.077997 0.424968 0.08817 -9.534587 4.227825 0.362416 -0.739142 4.296635 -0.400165 -2.867525 0.384865 0.489776 0.090246 -0.13016 -0.006032 
0.060861 0.570054 -0.017386 14.259474 10.698457 -2.980313 0.094418 -0.642437 -0.349162 0.888377 3.400173 1.032742 3.101704 13.705395 3.36449 -0.134868 0.259401 -0.1072 0.037475 -0.073544 -0.047901 0.28072 -0.187614 -14.447583 18.121548 -31.567642 -57.345608 10.353187 -23.555794 -2.085266 0.101025 0.164851 -0.13198 0.392013 -1.275216 8.926141 -24.471704 27.23205 50.315731 -23.352501 41.395309 -3.499131 0.074861 -0.245676 -0.002103 -15.464175 1.979897 -2.462721 6.560477 -0.682511 0.166845 -3.794154 0.270687 -0.187997 0.075826 0.42902 0.08877 -9.485849 4.044165 0.303183 -0.773317 4.202657 -0.35898 -2.866311 0.396556 0.48838 0.091062 -0.132095 -0.006999 
0.060762 0.569951 -0.016174 14.023351 10.766121 -2.956989 0.0779 -0.639874 -0.352877 0.879885 3.376891 1.036316 3.029189 13.516684 3.432502 -0.156302 0.255611 -0.108542 0.037766 -0.070594 -0.048212 0.277199 -0.183674 -14.471009 18.117605 -31.380928 -57.389107 10.329749 -23.410124 -2.090984 0.101832 0.16522 -0.133456 0.389606 -1.265266 8.930808 -24.221422 26.838961 50.325394 -23.340136 42.302525 -3.547496 0.077202 -0.247338 -0.002155 -15.153479 1.812486 -2.47307 6.45017 -0.760087 0.209955 -3.783683 0.280047 -0.183568 0.075639 0.432212 0.088846 -9.26902 3.855662 0.24728 -0.84747 4.1056 -0.299523 -2.866922 0.414429 0.487412 0.091332 -0.133221 -0.00761 
0.060764 0.569752 -0.014908 13.685857 10.811518 -2.895857 0.047621 -0.632521 -0.351846 0.879091 3.352516 1.030103 2.981677 13.295092 3.500524 -0.19267 0.246461 -0.115322 0.037646 -0.065813 -0.04831 0.26353 -0.175769 -14.521234 18.143002 -31.148975 -57.397572 10.292727 -23.242884 -2.107475 0.102079 0.164544 -0.133818 0.391155 -1.242914 8.929703 -23.856174 26.366871 50.27388 -23.357424 43.599319 -3.557221 0.081134 -0.247615 -0.001908 -14.718873 1.67167 -2.501985 6.293612 -0.803629 0.244232 -3.78458 0.292679 -0.174155 0.076778 0.433214 0.088281 -8.900647 3.646626 0.181565 -0.982453 3.995447 -0.214556 -2.874549 0.438052 0.489305 0.090694 -0.133325 -0.007839 
0.060805 0.569477 -0.013599 13.212539 10.818645 -2.78296 0.005601 -0.621586 -0.34664 0.888688 3.326148 1.013157 2.966555 13.044133 3.557156 -0.241283 0.233601 -0.125864 0.037007 -0.05891 -0.047971 0.244764 -0.161822 -14.589144 18.183233 -30.879122 -57.360905 10.241529 -23.095552 -2.136725 0.101711 0.162773 -0.132875 0.395736 -1.210642 8.929489 -23.368893 25.862141 50.162426 -23.36974 45.209846 -3.525457 0.08685 -0.246884 -0.001358 -14.137529 1.576159 -2.548446 6.095351 -0.804302 0.266204 -3.797554 0.308569 -0.159573 0.079549 0.431747 0.086917 -8.347528 3.443307 0.120254 -1.168325 3.88925 -0.113097 -2.88857 0.465587 0.492822 0.089038 -0.132319 -0.007668 
0.060917 0.569127 -0.012061 12.561441 10.811911 -2.614838 -0.041008 -0.605208 -0.334658 0.906751 3.294084 0.983172 2.975556 12.735266 3.617307 -0.301536 0.216817 -0.138897 0.035844 -0.050958 -0.047043 0.218455 -0.145445 -14.669643 18.246073 -30.561478 -57.276718 10.183106 -22.944151 -2.182772 0.100866 0.160029 -0.130654 0.400369 -1.158253 8.935335 -22.684246 25.299253 49.985542 -23.377136 47.164051 -3.416763 0.092655 -0.244392 -0.000647 -13.346066 1.529373 -2.616568 5.874078 -0.759562 0.274409 -3.837621 0.330272 -0.137928 0.082494 0.427426 0.085197 -7.560332 3.250459 0.055138 -1.404313 3.774349 0.004546 -2.916671 0.503194 0.501008 0.085791 -0.129477 -0.006904 
0.060981 0.568719 -0.010379 11.719445 10.809076 -2.394558 -0.079387 -0.584883 -0.317873 0.931278 3.259417 0.94668 3.038947 12.386797 3.641102 -0.36829 0.199235 -0.154005 0.034243 -0.045534 -0.045731 0.184474 -0.137362 -14.748745 18.294445 -30.210249 -57.11618 10.127165 -22.752068 -2.227654 0.100459 0.158413 -0.128314 0.398663 -1.086233 8.936402 -21.829992 24.656883 49.822021 -23.382677 49.423046 -3.293394 0.097834 -0.241455 -0.000324 -12.348326 1.530584 -2.711546 5.609259 -0.657591 0.252919 -3.897393 0.363566 -0.110235 0.086155 0.423317 0.084589 -6.536694 3.062006 0.002949 -1.664634 3.637299 0.139392 -2.974261 0.554983 0.520003 0.081948 -0.1271 -0.006378 
0.061181 0.568242 -0.008396 10.710238 10.769171 -2.169053 -0.128181 -0.555884 -0.290288 0.967286 3.206074 0.896187 3.151834 12.014935 3.589385 -0.452227 0.176052 -0.165704 0.032183 -0.038013 -0.045468 0.13672 -0.124195 -14.831092 18.353935 -29.751535 -56.866135 10.031988 -22.592833 -2.282391 0.098781 0.154727 -0.123491 0.385894 -0.988414 8.951572 -20.699741 24.006355 49.629307 -23.353144 52.004066 -3.064365 0.1033 -0.235505 0.000445 -11.190044 1.5924 -2.841322 5.333871 -0.469592 0.206346 -3.990334 0.398538 -0.075048 0.09241 0.413994 0.082809 -5.226312 2.925183 -0.043711 -1.927219 3.495191 0.291215 -3.047159 0.623815 0.544622 0.078047 -0.123505 -0.005204 
0.061298 0.567694 -0.006132 9.472086 10.692004 -1.898199 -0.182568 -0.517482 -0.253083 1.015085 3.140115 0.833974 3.320718 11.603367 3.502987 -0.547218 0.14858 -0.179091 0.029471 -0.029244 -0.044504 0.075174 -0.106597 -14.911759 18.416958 -29.210468 -56.510506 9.901322 -22.460197 -2.336676 0.095996 0.149478 -0.115994 0.359276 -0.860675 8.985435 -19.217072 23.295061 49.417408 -23.263878 54.907803 -2.731178 0.10815 -0.22743 0.001469 -9.798089 1.694274 -3.004462 5.046135 -0.220521 0.144456 -4.110745 0.44355 -0.032737 0.099928 0.401043 0.080655 -3.626443 2.810972 -0.066811 -2.226439 3.33081 0.459601 -3.136976 0.704786 0.576177 0.073187 -0.11879 -0.003808 
0.062059 0.566811 -0.0032 7.845834 10.298346 -1.580469 -0.237549 -0.460862 -0.212931 1.076974 3.074267 0.753034 3.6618 11.105401 3.396962 -0.629338 0.118309 -0.199333 0.02556 -0.015835 -0.039982 0.002914 -0.067345 -14.981018 18.484795 -28.73098 -55.993458 9.775136 -22.192059 -2.405772 0.088083 0.138837 -0.098908 0.34194 -0.698475 9.051862 -17.393124 22.426861 49.151451 -23.085619 58.461193 -2.258778 0.111739 -0.212688 0.003574 -7.926898 1.901981 -3.221344 4.590264 0.139028 0.03627 -4.277828 0.511909 0.032967 0.109014 0.381939 0.075611 -1.511951 2.665716 -0.090976 -2.571848 3.109422 0.646872 -3.273526 0.838949 0.641336 0.066279 -0.110972 -0.002791 
0.062709 0.565909 0.000164 6.017575 9.715775 -1.253309 -0.276247 -0.392424 -0.174998 1.141385 3.01075 0.661906 4.13296 10.549225 3.301838 -0.696741 0.088322 -0.218997 0.020187 0.000701 -0.03371 -0.089204 -0.010429 -15.05692 18.50812 -28.203558 -55.418865 9.566674 -21.860224 -2.427751 0.075687 0.122661 -0.075727 0.314058 -0.568334 9.183825 -15.10622 21.470545 48.764164 -22.764479 62.594376 -1.5431 0.117789 -0.193923 0.006843 -5.90553 2.222491 -3.469708 4.179565 0.576229 -0.085158 -4.451937 0.575745 0.110742 0.120483 0.351655 0.066886 0.828168 2.597167 -0.08712 -2.848321 2.951156 0.813891 -3.437841 1.014289 0.733455 0.055344 -0.096177 0.000107 
0.061939 0.565465 0.003328 4.421648 9.068542 -0.962545 -0.326926 -0.334375 -0.127365 1.20537 2.951445 0.56724 4.528877 10.047175 3.130281 -0.757473 0.074311 -0.239347 0.01557 0.008788 -0.027951 -0.179277 -0.012526 -15.104709 18.624285 -27.664623 -54.758701 9.302818 -21.471413 -2.355893 0.066106 0.111683 -0.056725 0.261777 -0.465505 9.332803 -12.669301 20.752914 48.514973 -22.271122 66.377518 -0.633571 0.112943 -0.178588 0.008286 -4.171884 2.581157 -3.65027 3.839371 1.00967 -0.185083 -4.57779 0.653596 0.174778 0.118828 0.326194 0.061176 2.866967 2.635714 0.033263 -2.962009 2.887023 0.853429 -3.64298 1.174587 0.831377 0.047736 -0.089513 -0.001617 
0.059687 0.564872 0.005643 3.190846 8.560323 -0.634045 -0.375608 -0.28026 -0.096814 1.282421 2.875237 0.429117 4.688149 9.504803 2.862628 -0.812541 0.050036 -0.262409 0.010754 0.022849 -0.022508 -0.252029 -0.019244 -15.070095 18.777166 -27.068586 -53.964752 9.010402 -21.153021 -2.238562 0.056581 0.099826 -0.039881 0.191162 -0.388088 9.462846 -10.332557 20.289692 48.296478 -22.233133 69.882736 0.633013 0.117024 -0.165695 0.010051 -2.849943 2.977146 -3.826233 3.565674 1.505963 -0.277986 -4.620811 0.715871 0.236358 0.119337 0.304897 0.05477 4.498519 2.72308 0.191274 -3.021386 2.954922 0.851736 -3.858174 1.306469 0.890984 0.039 -0.080738 -0.003124 
0.056984 0.564236 0.00802 1.881419 7.931731 -0.309832 -0.445433 -0.221549 -0.047761 1.360831 2.760716 0.282127 4.834783 8.924105 2.520488 -0.859017 0.024664 -0.286852 0.006023 0.036614 -0.016519 -0.33312 -0.017184 -15.054829 18.947027 -26.413948 -53.156349 8.630349 -20.805489 -2.052005 0.045039 0.08426 -0.021059 0.118259 -0.267731 9.585853 -7.728035 19.813728 48.051144 -22.5898 73.649704 2.469553 0.117819 -0.147315 0.011587 -1.501925 3.283407 -3.971428 3.359003 1.97603 -0.389919 -4.606336 0.799223 0.316299 0.118295 0.273617 0.047387 6.159286 2.849633 0.396412 -3.048349 3.022898 0.841366 -4.074977 1.45297 0.947847 0.030633 -0.070297 -0.004776 
